<svg width="102" height="23" viewBox="0 0 102 23" fill="none" xmlns="http://www.w3.org/2000/svg">
<path d="M11 0C4.93786 0 0 4.95297 0 11.0194C0 17.0922 4.94425 22.0388 11 22.0388C17.0557 22.0388 22 17.0922 22 11.0194C22 4.95297 17.126 0 11 0ZM11 16.9514C7.72938 16.9514 5.0784 14.2958 5.0784 11.0194C5.0784 7.74301 7.723 5.09375 11 5.09375C14.2706 5.09375 16.9152 7.74301 16.9152 11.0194C16.9152 14.2958 14.2706 16.9514 11 16.9514ZM61.7584 0C53.1922 0 46.2997 4.95297 46.2997 11.0194C46.2997 17.0922 53.1922 22.0388 61.7584 22.0388C70.3246 22.0388 77.2172 17.0922 77.2172 11.0194C77.2172 4.95297 70.2544 0 61.7584 0ZM61.7584 16.9514C55.8432 16.9514 51.4547 13.8094 51.4547 11.0834C51.4547 8.29974 55.8432 5.22173 61.7584 5.22173C67.6736 5.22173 72.0621 8.36373 72.0621 11.0834C72.0621 13.8094 67.6098 16.9514 61.7584 16.9514ZM98.5912 0.492737C97.1986 0.492737 96.0168 1.67659 96.0168 3.07161V11.7169L82.0912 0.62712C81.6057 0.211173 80.9094 0.55033 80.9094 1.18385V18.9736C80.9094 20.3686 82.0912 21.5524 83.4837 21.5524C84.8763 21.5524 86.0581 20.3686 86.0581 18.9736V10.3987L99.9837 21.4885C100.469 21.9044 101.166 21.5588 101.166 20.9253V3.07801C101.166 1.68298 99.9837 0.499136 98.5912 0.499136V0.492737ZM42.2625 16.4587H33.4855L44.626 1.67659C44.9774 1.18385 44.626 0.492737 44.0703 0.492737H27.9152C26.5226 0.492737 25.3409 1.67659 25.3409 3.07161C25.3409 4.46023 26.5226 5.65048 27.9152 5.65048H35.2294L24.0186 20.4326C23.6736 20.9189 24.0186 21.6164 24.6446 21.6164H42.2625C43.6551 21.6164 44.8368 20.4326 44.8368 19.0376C44.8368 17.6425 43.6551 16.4587 42.2625 16.4587Z" fill="white"/>
</svg>
