<?xml version="1.0" encoding="utf-8"?>
<!-- Generator: Adobe Illustrator 18.1.1, SVG Export Plug-In . SVG Version: 6.00 Build 0)  -->
<svg version="1.1" id="Layer_1" xmlns="http://www.w3.org/2000/svg" xmlns:xlink="http://www.w3.org/1999/xlink" x="0px" y="0px"
	 viewBox="0 0 222 57.4" enable-background="new 0 0 222 57.4" xml:space="preserve">
<g>
	<path fill="#FFFFFF" d="M15.3,12.3c0.2-1.4,0.5-2.8,0.7-4.3c0.6,0,1.1-0.1,1.7-0.1c2.8-0.1,5.7-0.1,8.4,0.5
		c1.7,0.3,3.3,0.8,4.8,1.8c1.6,1,2.5,2.5,2.6,4.4c0.2,2.9-0.2,5.7-1.5,8.3c-0.6,1.3-1.6,2.2-2.8,2.9c-0.7,0.4-1.4,0.6-2.2,0.9
		c0.3,0.1,0.7,0.2,1,0.3c0.8,0.3,1.6,0.6,2.3,1.1c1.7,1,2.3,2.7,2.4,4.6c0.2,2.9-0.3,5.7-1.4,8.4c-1.3,3-3.7,4.6-6.8,5.3
		c-5.6,1.3-11.2,1.5-16.8,0.6c-1.8-0.3-3.5-0.7-5.2-1.1c-0.7-0.2-0.7-0.3-0.6-1c0.4-2,0.7-3.9,1.1-5.9c0.8-4.6,1.6-9.1,2.4-13.7
		c0.6-3.3,1.1-6.5,1.7-9.8c0.2-0.9,0.4-1.8,0.5-2.8c0.1-0.4,0.2-0.4,0.5-0.4c2.2,0,4.4,0,6.6,0C15,12.3,15.2,12.3,15.3,12.3z
		 M12,31.8c-0.5,2.7-1,5.3-1.5,8c3.8,0,7.5,0,11.3,0c0.5-2.7,0.9-5.3,1.4-8C19.5,31.8,15.8,31.8,12,31.8z M24.9,22.6
		c0.4-2.5,0.9-5,1.3-7.5c-3.8,0-7.5,0-11.3,0c-0.4,2.5-0.9,5-1.3,7.5C17.4,22.6,21.2,22.6,24.9,22.6z"/>
	<path fill="#ABABAB" d="M152.4,46.8c0.2-1.1,0.4-2.2,0.6-3.2c0.8-4.3,1.5-8.6,2.2-12.9c0.3-2.1-0.6-3.2-2.6-3.5
		c-1.5-0.2-2.9,0.1-4.1,0.9c-0.2,0.1-0.3,0.4-0.4,0.6c-1,5.8-2,11.5-3.1,17.3c-0.1,0.8-0.1,0.8-1,0.8c-1.8,0-3.5,0-5.3,0
		c0.2-1,0.3-2,0.5-2.9c0.8-4.5,1.6-9,2.4-13.6c0.2-1.4-0.4-2.4-1.8-2.9c-1.7-0.5-3.3-0.3-5,0.2c-0.1,0-0.3,0.3-0.3,0.5
		c-0.4,2.2-0.8,4.5-1.2,6.7c-0.7,3.8-1.4,7.7-2,11.5c0,0.1-0.1,0.2-0.1,0.4c-2,0-4,0-6.1,0c0.3-1.5,0.5-3,0.8-4.5
		c1-5.5,1.9-11.1,2.9-16.6c0.1-0.3,0.2-0.6,0.2-0.9c0-0.7,0.4-0.9,0.9-1.1c3.1-1,6.3-1.6,9.6-1.4c1.3,0.1,2.6,0.3,3.9,0.8
		c0.9,0.4,1.6,0.9,2.5,1.5c1.3-0.8,2.9-1.5,4.6-1.9c2.1-0.5,4.2-0.7,6.4-0.2c3.5,0.8,5.1,3.5,4.7,6.9c-0.4,3.1-1.1,6.3-1.6,9.4
		c-0.5,2.6-0.9,5.3-1.4,7.9C156.5,46.8,154.5,46.8,152.4,46.8z"/>
	<path fill="#ABABAB" d="M198.4,56.2c0.3-1.8,0.6-3.6,1-5.5c0.2,0.1,0.3,0.1,0.4,0.2c2.4,1.1,4.8,1.5,7.4,1.1
		c2.5-0.3,4.1-1.9,4.7-4.6c0.1-0.6,0.2-1.2,0.3-1.9c-1.8,0.6-3.5,0.9-5.3,0.8c-4.4-0.2-7.5-3.1-7.8-7.6c-0.2-3.4,0.5-6.5,2.1-9.5
		c1.9-3.4,4.8-5.6,8.6-6.4c3.7-0.8,7.4-0.6,11,0.7c1.3,0.5,1.3,0.5,1,1.8c-0.6,3.3-1.2,6.7-1.8,10c-0.8,4.2-1.4,8.4-2.3,12.6
		c-1.2,5.7-5.6,9.2-11.4,9.3c-2.7,0.1-5.3-0.2-7.8-1.1C198.6,56.3,198.5,56.3,198.4,56.2z M215.3,28c-2.8-1-6.5-0.7-8.5,2.8
		c-1.2,2.2-1.7,4.6-1.5,7.1c0.2,1.9,1.3,3.2,3.1,3.6c1.5,0.3,2.9,0,4.3-0.4c0.1,0,0.2-0.2,0.3-0.4c0.2-0.9,0.3-1.8,0.5-2.8
		C214.2,34.7,214.8,31.4,215.3,28z"/>
	<path fill="#ABABAB" d="M78.7,50.7c2.3,1.2,4.8,1.6,7.3,1.4c2.9-0.2,4.6-1.8,5.2-4.6c0.1-0.6,0.2-1.2,0.4-1.9
		c-1.8,0.6-3.5,0.9-5.3,0.8c-4.4-0.2-7.5-3.1-7.8-7.6c-0.2-4.1,0.8-7.9,3.3-11.2c2-2.5,4.6-4,7.7-4.6c3.6-0.7,7.1-0.5,10.6,0.7
		c1.4,0.5,1.4,0.5,1.1,2c-0.5,3.1-1.1,6.2-1.6,9.2c-0.8,4.2-1.5,8.4-2.3,12.6c-0.7,3.6-2.5,6.4-5.8,8.2c-1.6,0.9-3.4,1.4-5.2,1.5
		c-2.7,0.2-5.4-0.1-8.1-0.9c-0.4-0.1-0.5-0.3-0.4-0.7c0.3-1.5,0.6-3,0.8-4.6C78.6,51,78.7,50.9,78.7,50.7z M94.8,27.8
		c-0.7-0.1-1.4-0.3-2.1-0.4c-2.6-0.3-4.8,0.6-6.2,2.9c-1.4,2.3-2.1,4.9-1.8,7.7c0.2,2.1,1.6,3.4,3.7,3.7c1.1,0.1,2.2-0.1,3.3-0.4
		c0.5-0.1,0.6-0.4,0.7-0.8c0.4-2.3,0.8-4.6,1.2-6.9C94,31.7,94.4,29.8,94.8,27.8z"/>
	<path fill="#FFFFFF" d="M42.5,35.8c-0.2,1.3-0.1,2.6,0.5,3.7c0.7,1.4,2.1,2.1,3.6,2.2c3.2,0.3,6.4,0,9.4-1.1
		c0.3-0.1,0.6-0.1,0.9-0.1c0,0.3,0,0.6-0.1,0.8c-0.3,1.3-0.5,2.6-0.9,3.9c0,0.2-0.3,0.4-0.4,0.5c-3.4,1.2-7,1.5-10.6,1.2
		c-2.2-0.2-4.2-0.9-5.9-2.4c-1.4-1.3-2.2-2.9-2.6-4.7c-0.4-2.1-0.3-4.2,0.2-6.2c0.7-3,1.9-5.6,4.1-7.8c2.1-2.1,4.5-3.3,7.4-3.7
		c1.9-0.2,3.7-0.2,5.5,0.4c3,1,4.7,3.2,5.1,6.3c0.3,2.2-0.1,4.4-0.7,6.5c-0.1,0.4-0.3,0.6-0.8,0.6c-4.8,0-9.5,0-14.3,0
		C42.9,35.8,42.7,35.8,42.5,35.8z M53,31.7c0-0.8,0-1.5-0.1-2.2c-0.2-1.2-0.9-2.2-2.1-2.6c-2.3-0.7-4.8,0.2-6.3,2.2
		c-0.6,0.8-1,1.6-1.2,2.6C46.4,31.7,49.6,31.7,53,31.7z"/>
	<path fill="#ABABAB" d="M179.8,46.9c-2,0-4,0-6.1,0c0.2-1,0.3-1.9,0.5-2.9c1.1-6.1,2.2-12.2,3.2-18.3c0-0.1,0.1-0.2,0.1-0.3
		c0-1.1,0.5-1.5,1.5-1.8c3.8-1.1,7.7-1.6,11.7-1c0.9,0.1,1.7,0.4,2.5,0.7c2.6,1,3.9,3.1,3.6,5.9c-0.1,1.3-0.4,2.6-0.6,4
		c-0.8,4.5-1.6,9-2.4,13.6c0,0.1,0,0.1,0,0.2c-2,0-4.1,0-6.1,0c0.2-0.9,0.3-1.8,0.5-2.7c0.8-4.4,1.6-8.8,2.3-13.2
		c0.4-2.2-0.8-3.6-3.1-3.7c-1.3-0.1-2.5,0.1-3.7,0.4c-0.3,0.1-0.4,0.2-0.5,0.5c-0.6,3.7-1.3,7.4-1.9,11.1c-0.4,2.4-0.8,4.8-1.3,7.2
		C179.9,46.6,179.8,46.7,179.8,46.9z"/>
	<path fill="#ABABAB" d="M107,28.2c-0.3-1.4-0.5-2.7-0.8-4.1c0.6-0.2,1.3-0.4,1.9-0.6c2.7-0.8,5.5-1.2,8.4-1.1
		c1,0.1,2.1,0.2,3.1,0.5c2.7,0.7,4.2,2.6,4.2,5.4c0,1.4-0.2,2.8-0.5,4.1c-0.7,4.3-1.5,8.5-2.2,12.8c-0.1,0.3-0.2,0.5-0.5,0.6
		c-1.7,0.7-3.5,1.1-5.3,1.3c-2.5,0.3-4.9,0.4-7.4-0.1c-1.1-0.2-2.1-0.6-3.1-1.1c-2.1-1.1-3-3-2.8-5.3c0.2-3.7,2.3-6.1,5.7-7.5
		c2.1-0.9,4.4-1.3,6.7-1.5c1-0.1,1.9-0.2,2.9-0.2c0.3,0,0.5-0.1,0.5-0.4c0.1-0.6,0.2-1.1,0.2-1.7c0-1-0.5-1.6-1.3-2
		c-1-0.5-2.1-0.5-3.2-0.4C111.2,26.9,109.1,27.4,107,28.2z M117,35.3c-2.1,0.1-4,0.2-6,0.8c-0.9,0.3-1.7,0.7-2.3,1.5
		c-1.8,2.2-0.9,4.7,1.9,5.2c1.3,0.2,2.6,0.2,3.9-0.1c1.1-0.2,1.1-0.2,1.3-1.3C116.3,39.4,116.6,37.4,117,35.3z"/>
	<path fill="#FFFFFF" d="M65.6,26.1c-1.1,0-2.1,0-3.2,0c0.3-1.4,0.5-2.7,0.8-4.1c0.9,0,1.9,0,2.8,0c0.3,0,0.4-0.1,0.5-0.4
		c0.3-2,0.7-4,1.1-6c0-0.1,0.1-0.2,0.1-0.4c2.1,0,4.2,0,6.4,0c-0.4,2.3-0.8,4.5-1.2,6.8c1.5,0,3,0,4.5,0c-0.2,1.4-0.4,2.7-0.7,4.1
		c-1.5,0-3,0-4.5,0c-0.2,1.1-0.4,2.2-0.6,3.4c-0.3,1.8-0.6,3.6-0.9,5.4c-0.2,1.4-0.5,2.8-0.8,4.2c-0.2,1.3,0.4,2.2,1.8,2.2
		c0.6,0,1.2-0.1,1.8-0.2c0.5-0.1,0.6,0,0.5,0.4c-0.3,1.5-0.5,2.9-0.8,4.4c0,0.2-0.2,0.5-0.4,0.5c-2.1,0.7-4.3,0.9-6.5,0.2
		c-1.9-0.6-2.9-2.1-3-4.1c-0.1-1.5,0.2-3,0.4-4.5c0.5-2.8,1-5.6,1.5-8.5c0.2-0.9,0.4-1.9,0.5-2.8C65.5,26.4,65.6,26.3,65.6,26.1z"/>
	<path fill="#ABABAB" d="M167.3,22.8c2,0,4.1,0,6.1,0c-1.4,8-2.8,16-4.2,24c-2,0-4,0-6.1,0C164.5,38.8,165.9,30.8,167.3,22.8z"/>
	<path fill="#FF6B00" d="M12.9,0.1c-0.5,2.7-1,5.4-1.5,8.1c-3.8,0-7.6,0-11.4,0c0.2-0.9,0.3-1.8,0.4-2.6c0.3-1.7,0.6-3.4,0.9-5.1
		C1.4,0.2,1.5,0,1.9,0C5.5,0,9,0,12.6,0C12.7,0,12.8,0,12.9,0.1z"/>
</g>
</svg>
